<?xml version="1.0" encoding="UTF-8"?>
<svg width="240" height="240" viewBox="0 0 240 240" xmlns="http://www.w3.org/2000/svg" role="img" aria-label="Line art robot">
  <rect x="48" y="64" width="144" height="120" rx="18" ry="18" fill="none" stroke="#000" stroke-width="3"/>
  <rect x="72" y="28" width="96" height="72" rx="14" ry="14" fill="none" stroke="#000" stroke-width="3"/>
  <line x1="120" y1="12" x2="120" y2="28" stroke="#000" stroke-width="4" stroke-linecap="round"/>
  <circle cx="120" cy="8" r="6" fill="none" stroke="#000" stroke-width="3"/>

  <circle cx="92" cy="60" r="10" fill="none" stroke="#000" stroke-width="3"/>
  <circle cx="148" cy="60" r="10" fill="none" stroke="#000" stroke-width="3"/>
  <rect x="104" y="76" width="32" height="8" rx="4" fill="none" stroke="#000" stroke-width="3"/>

  <rect x="88" y="100" width="64" height="40" rx="6" ry="6" fill="none" stroke="#000" stroke-width="3"/>
  <line x1="120" y1="100" x2="120" y2="140" stroke="#000" stroke-width="3" stroke-dasharray="6 6"/>

  <rect x="32" y="104" width="20" height="64" rx="10" ry="10" fill="none" stroke="#000" stroke-width="3"/>
  <rect x="188" y="104" width="20" height="64" rx="10" ry="10" fill="none" stroke="#000" stroke-width="3"/>

  <ellipse cx="88" cy="196" rx="22" ry="10" fill="none" stroke="#000" stroke-width="3"/>
  <ellipse cx="152" cy="196" rx="22" ry="10" fill="none" stroke="#000" stroke-width="3"/>
</svg>
